<svg width="24" height="24" viewBox="0 0 24 24" fill="none" xmlns="http://www.w3.org/2000/svg">
<path d="M11.9912 13.1357C11.8096 13.1357 11.6309 13.1064 11.4551 13.0479C11.2793 12.9893 11.083 12.8984 10.8662 12.7754L3.99316 8.78516C3.63574 8.57422 3.38086 8.38086 3.22852 8.20508C3.08203 8.02344 3.00879 7.80957 3.00879 7.56348C3.00879 7.32324 3.08203 7.11523 3.22852 6.93945C3.38086 6.75781 3.63574 6.56152 3.99316 6.35059L10.8662 2.36035C11.083 2.2373 11.2793 2.14648 11.4551 2.08789C11.6309 2.0293 11.8096 2 11.9912 2C12.167 2 12.3428 2.0293 12.5186 2.08789C12.7002 2.14648 12.8965 2.2373 13.1074 2.36035L19.9805 6.35059C20.3379 6.56152 20.5898 6.75781 20.7363 6.93945C20.8887 7.11523 20.9648 7.32324 20.9648 7.56348C20.9648 7.80957 20.8887 8.02344 20.7363 8.20508C20.5898 8.38086 20.3379 8.57422 19.9805 8.78516L13.1074 12.7754C12.8965 12.8984 12.7002 12.9893 12.5186 13.0479C12.3428 13.1064 12.167 13.1357 11.9912 13.1357ZM11.9912 17.4688C11.8271 17.4688 11.6719 17.4336 11.5254 17.3633C11.3789 17.293 11.2119 17.2051 11.0244 17.0996L3.4834 12.6436C3.31934 12.5439 3.19629 12.4268 3.11426 12.292C3.03809 12.1514 3 12.0137 3 11.8789C3 11.6973 3.05273 11.5391 3.1582 11.4043C3.26953 11.2637 3.38672 11.1641 3.50977 11.1055L11.6484 15.8076C11.7129 15.8428 11.7715 15.8721 11.8242 15.8955C11.8828 15.9189 11.9385 15.9307 11.9912 15.9307C12.0381 15.9307 12.0879 15.9189 12.1406 15.8955C12.1992 15.8721 12.2607 15.8428 12.3252 15.8076L20.4639 11.1055C20.5869 11.1641 20.7012 11.2637 20.8066 11.4043C20.918 11.5391 20.9736 11.6973 20.9736 11.8789C20.9736 12.0137 20.9355 12.1514 20.8594 12.292C20.7832 12.4268 20.6631 12.5439 20.499 12.6436L12.9492 17.0996C12.7617 17.2051 12.5947 17.293 12.4482 17.3633C12.3018 17.4336 12.1494 17.4688 11.9912 17.4688ZM11.9912 21.5117C11.8271 21.5117 11.6719 21.4766 11.5254 21.4062C11.3789 21.3418 11.2119 21.2539 11.0244 21.1426L3.4834 16.6865C3.31934 16.5928 3.19629 16.4785 3.11426 16.3438C3.03809 16.2031 3 16.0625 3 15.9219C3 15.7461 3.05273 15.5908 3.1582 15.4561C3.26953 15.3154 3.38672 15.2129 3.50977 15.1484L11.6484 19.8594C11.7129 19.8945 11.7715 19.9238 11.8242 19.9473C11.8828 19.9707 11.9385 19.9824 11.9912 19.9824C12.0381 19.9824 12.0879 19.9707 12.1406 19.9473C12.1992 19.9238 12.2607 19.8945 12.3252 19.8594L20.4639 15.1484C20.5869 15.2129 20.7012 15.3154 20.8066 15.4561C20.918 15.5908 20.9736 15.7461 20.9736 15.9219C20.9736 16.0625 20.9326 16.2031 20.8506 16.3438C20.7744 16.4785 20.6572 16.5928 20.499 16.6865L12.9492 21.1426C12.7617 21.2539 12.5947 21.3418 12.4482 21.4062C12.3018 21.4766 12.1494 21.5117 11.9912 21.5117Z" fill="#969696"/>
</svg>
