<svg width="24" height="24" viewBox="0 0 24 24" fill="none" xmlns="http://www.w3.org/2000/svg">
<path d="M12 23C10.4974 23 9.08105 22.7124 7.75098 22.1373C6.4281 21.5621 5.2598 20.7676 4.24608 19.7539C3.23235 18.7402 2.43791 17.5719 1.86275 16.249C1.28758 14.919 1 13.5026 1 12C1 10.4974 1.28758 9.08464 1.86275 7.76177C2.43791 6.4317 3.22876 5.2598 4.23529 4.24608C5.24902 3.23235 6.41732 2.43791 7.7402 1.86275C9.07026 1.28758 10.4866 1 11.9892 1C13.4918 1 14.9082 1.28758 16.2382 1.86275C17.5683 2.43791 18.7402 3.23235 19.7539 4.24608C20.7676 5.2598 21.5621 6.4317 22.1373 7.76177C22.7124 9.08464 23 10.4974 23 12C23 13.5026 22.7124 14.919 22.1373 16.249C21.5621 17.5719 20.7676 18.7402 19.7539 19.7539C18.7402 20.7676 17.5683 21.5621 16.2382 22.1373C14.9154 22.7124 13.5026 23 12 23ZM10.0588 18.2333H14.5775C14.8075 18.2333 15.0016 18.1614 15.1598 18.0176C15.318 17.8667 15.3971 17.6761 15.3971 17.4461C15.3971 17.2304 15.318 17.0471 15.1598 16.8961C15.0016 16.7379 14.8075 16.6588 14.5775 16.6588H13.2078V11.0186C13.2078 10.7167 13.1324 10.4722 12.9814 10.2853C12.8376 10.0984 12.6219 10.0049 12.3343 10.0049H10.2422C10.0193 10.0049 9.82876 10.084 9.67059 10.2422C9.51242 10.3931 9.43333 10.5765 9.43333 10.7922C9.43333 11.0222 9.51242 11.2127 9.67059 11.3637C9.82876 11.5075 10.0193 11.5794 10.2422 11.5794H11.4284V16.6588H10.0588C9.82876 16.6588 9.63464 16.7379 9.47647 16.8961C9.3183 17.0471 9.23922 17.2304 9.23922 17.4461C9.23922 17.6761 9.3183 17.8667 9.47647 18.0176C9.63464 18.1614 9.82876 18.2333 10.0588 18.2333ZM11.9029 8.16078C12.3127 8.16078 12.6542 8.02059 12.9275 7.7402C13.2078 7.45261 13.348 7.10752 13.348 6.7049C13.348 6.2951 13.2078 5.95 12.9275 5.66961C12.6542 5.38203 12.3127 5.23824 11.9029 5.23824C11.5003 5.23824 11.1552 5.38203 10.8676 5.66961C10.5873 5.95 10.4471 6.2951 10.4471 6.7049C10.4471 7.10752 10.5873 7.45261 10.8676 7.7402C11.1552 8.02059 11.5003 8.16078 11.9029 8.16078Z" fill="#969696"/>
</svg>
