<svg width="24" height="24" viewBox="0 0 24 24" fill="none" xmlns="http://www.w3.org/2000/svg">
<path d="M12.0845 17.355C11.3735 17.355 10.7002 17.2183 10.0645 16.9448C9.43555 16.6714 8.87842 16.2954 8.39307 15.8169C7.91455 15.3315 7.53857 14.7744 7.26514 14.1455C6.99854 13.5166 6.86523 12.8433 6.86523 12.1255C6.86523 11.4077 6.99854 10.7344 7.26514 10.1055C7.53857 9.46973 7.91455 8.9126 8.39307 8.43408C8.87842 7.94873 9.43555 7.56934 10.0645 7.2959C10.7002 7.02246 11.3735 6.88574 12.0845 6.88574C12.7954 6.88574 13.4653 7.02246 14.0942 7.2959C14.73 7.56934 15.2871 7.94873 15.7656 8.43408C16.251 8.9126 16.627 9.46973 16.8936 10.1055C17.167 10.7344 17.3037 11.4077 17.3037 12.1255C17.3037 12.8433 17.167 13.5166 16.8936 14.1455C16.627 14.7744 16.251 15.3315 15.7656 15.8169C15.2871 16.2954 14.73 16.6714 14.0942 16.9448C13.4653 17.2183 12.7954 17.355 12.0845 17.355ZM12.0947 4.98877C11.8486 4.98877 11.6367 4.90332 11.459 4.73242C11.2881 4.55469 11.2026 4.34277 11.2026 4.09668V1.89209C11.2026 1.646 11.2881 1.4375 11.459 1.2666C11.6367 1.08887 11.8486 1 12.0947 1C12.334 1 12.5391 1.08887 12.71 1.2666C12.8877 1.4375 12.9766 1.646 12.9766 1.89209V4.09668C12.9766 4.34277 12.8877 4.55469 12.71 4.73242C12.5391 4.90332 12.334 4.98877 12.0947 4.98877ZM17.1191 7.09082C16.9482 6.91992 16.8628 6.71143 16.8628 6.46533C16.8628 6.21924 16.9482 6.01074 17.1191 5.83984L18.6982 4.26074C18.8691 4.08984 19.0776 4.00439 19.3237 4.00439C19.5698 4.00439 19.7783 4.08984 19.9492 4.26074C20.1201 4.43164 20.2056 4.64355 20.2056 4.89648C20.2056 5.14258 20.1201 5.35107 19.9492 5.52197L18.3804 7.09082C18.2026 7.26855 17.9907 7.35742 17.7446 7.35742C17.4985 7.35059 17.29 7.26172 17.1191 7.09082ZM19.2007 12.1255C19.2007 11.8794 19.2861 11.6709 19.457 11.5C19.6348 11.3223 19.8467 11.2334 20.0928 11.2334H22.2974C22.5366 11.2334 22.7417 11.3223 22.9126 11.5C23.0903 11.6709 23.1792 11.8794 23.1792 12.1255C23.1792 12.3647 23.0903 12.5732 22.9126 12.751C22.7417 12.9219 22.5366 13.0073 22.2974 13.0073H20.0928C19.8467 13.0073 19.6348 12.9219 19.457 12.751C19.2861 12.5732 19.2007 12.3647 19.2007 12.1255ZM17.1191 17.1602C17.29 16.9961 17.4985 16.9141 17.7446 16.9141C17.9907 16.9141 18.1992 16.9961 18.3701 17.1602L19.9492 18.7393C20.1201 18.9102 20.2056 19.1187 20.2056 19.3647C20.2056 19.604 20.1201 19.8125 19.9492 19.9902C19.7783 20.1543 19.5698 20.2363 19.3237 20.2363C19.0776 20.2432 18.8691 20.1646 18.6982 20.0005L17.1191 18.4111C16.9482 18.2402 16.8628 18.0352 16.8628 17.7959C16.8628 17.5498 16.9482 17.3379 17.1191 17.1602ZM12.0947 19.2622C12.334 19.2622 12.5391 19.3511 12.71 19.5288C12.8877 19.6997 12.9766 19.9048 12.9766 20.144V22.3589C12.9766 22.5981 12.8877 22.8032 12.71 22.9741C12.5391 23.1519 12.334 23.2407 12.0947 23.2407C11.8486 23.2407 11.6367 23.1519 11.459 22.9741C11.2881 22.8032 11.2026 22.5981 11.2026 22.3589V20.144C11.2026 19.9048 11.2881 19.6997 11.459 19.5288C11.6367 19.3511 11.8486 19.2622 12.0947 19.2622ZM7.06006 17.1602C7.22412 17.3379 7.30615 17.5498 7.30615 17.7959C7.30615 18.0352 7.2207 18.2402 7.0498 18.4111L5.48096 19.9902C5.31006 20.1543 5.09814 20.2329 4.84521 20.2261C4.59912 20.2261 4.39062 20.144 4.21973 19.98C4.05566 19.8022 3.97363 19.5938 3.97363 19.3545C3.97363 19.1084 4.05908 18.8999 4.22998 18.729L5.79883 17.1602C5.96973 16.9961 6.17822 16.9141 6.42432 16.9141C6.67725 16.9141 6.88916 16.9961 7.06006 17.1602ZM4.97852 12.1255C4.97852 12.3647 4.88965 12.5732 4.71191 12.751C4.54102 12.9219 4.33252 13.0073 4.08643 13.0073H1.88184C1.64258 13.0073 1.43408 12.9219 1.25635 12.751C1.08545 12.5732 1 12.3647 1 12.1255C1 11.8794 1.08545 11.6709 1.25635 11.5C1.43408 11.3223 1.64258 11.2334 1.88184 11.2334H4.08643C4.33252 11.2334 4.54102 11.3223 4.71191 11.5C4.88965 11.6709 4.97852 11.8794 4.97852 12.1255ZM7.0498 7.09082C6.87891 7.26172 6.67041 7.34717 6.42432 7.34717C6.17822 7.34717 5.96973 7.26172 5.79883 7.09082L4.22998 5.51172C4.06592 5.34766 3.98389 5.14258 3.98389 4.89648C3.98389 4.64355 4.06934 4.43164 4.24023 4.26074C4.41113 4.08984 4.61963 4.00781 4.86572 4.01465C5.11182 4.01465 5.32031 4.09668 5.49121 4.26074L7.06006 5.83984C7.22412 6.01074 7.30615 6.22266 7.30615 6.47559C7.30615 6.72168 7.2207 6.92676 7.0498 7.09082Z" fill="#969696"/>
</svg>
