<svg width="24" height="24" viewBox="0 0 24 24" fill="none" xmlns="http://www.w3.org/2000/svg">
<path d="M12 23C10.4939 23 9.07544 22.7112 7.74477 22.1336C6.4214 21.5633 5.25158 20.7737 4.23529 19.7647C3.22632 18.7484 2.43303 17.5786 1.85543 16.2552C1.28514 14.9246 1 13.5061 1 12C1 10.4939 1.28514 9.0791 1.85543 7.75573C2.43303 6.42506 3.22632 5.25523 4.23529 4.24626C5.24427 3.22998 6.41044 2.43669 7.7338 1.8664C9.06447 1.2888 10.4829 1 11.989 1C13.4952 1 14.9136 1.2888 16.2443 1.8664C17.5749 2.43669 18.7448 3.22998 19.7537 4.24626C20.7627 5.25523 21.556 6.42506 22.1336 7.75573C22.7112 9.0791 23 10.4939 23 12C23 13.5061 22.7112 14.9246 22.1336 16.2552C21.556 17.5786 20.7627 18.7484 19.7537 19.7647C18.7448 20.7737 17.5749 21.5633 16.2443 22.1336C14.9209 22.7112 13.5061 23 12 23ZM12 21.5852C13.3234 21.5852 14.5626 21.3367 15.7178 20.8395C16.8804 20.3423 17.9003 19.655 18.7777 18.7777C19.6623 17.9003 20.3496 16.884 20.8395 15.7288C21.3367 14.5663 21.5852 13.3234 21.5852 12C21.5852 10.6766 21.3367 9.43735 20.8395 8.28215C20.3423 7.11964 19.655 6.0997 18.7777 5.22233C17.9003 4.33765 16.8804 3.65038 15.7178 3.16052C14.5626 2.66334 13.3197 2.41476 11.989 2.41476C10.6657 2.41476 9.42273 2.66334 8.26022 3.16052C7.10502 3.65038 6.08873 4.33765 5.21137 5.22233C4.34131 6.0997 3.65769 7.11964 3.16052 8.28215C2.67065 9.43735 2.42572 10.6766 2.42572 12C2.42572 13.3234 2.67065 14.5663 3.16052 15.7288C3.65769 16.884 4.34497 17.9003 5.22233 18.7777C6.0997 19.655 7.11599 20.3423 8.27119 20.8395C9.42639 21.3367 10.6693 21.5852 12 21.5852ZM5.93519 9.59821C5.75241 9.59821 5.59887 9.54337 5.47458 9.4337C5.35028 9.31672 5.28814 9.17049 5.28814 8.99501C5.28814 8.81223 5.35028 8.666 5.47458 8.55633C5.59887 8.43935 5.75241 8.38086 5.93519 8.38086H18.0977C18.2805 8.38086 18.4304 8.43935 18.5474 8.55633C18.6717 8.666 18.7338 8.81223 18.7338 8.99501C18.7338 9.17049 18.6717 9.31672 18.5474 9.4337C18.4304 9.54337 18.2805 9.59821 18.0977 9.59821H5.93519ZM7.54736 13.2064C7.35726 13.2064 7.20007 13.1552 7.07577 13.0528C6.95879 12.9432 6.9003 12.7969 6.9003 12.6142C6.9003 12.4314 6.95879 12.2851 7.07577 12.1755C7.20007 12.0585 7.35726 12 7.54736 12H16.4855C16.6683 12 16.8219 12.0585 16.9462 12.1755C17.0705 12.2851 17.1326 12.4314 17.1326 12.6142C17.1326 12.7969 17.0705 12.9432 16.9462 13.0528C16.8219 13.1552 16.6683 13.2064 16.4855 13.2064H7.54736ZM9.22532 16.8475C9.03523 16.8475 8.87803 16.7926 8.75374 16.683C8.63676 16.5733 8.57827 16.4307 8.57827 16.2552C8.57827 16.0724 8.63676 15.9262 8.75374 15.8166C8.87803 15.6996 9.03523 15.6411 9.22532 15.6411H14.8076C14.9904 15.6411 15.1402 15.6996 15.2572 15.8166C15.3815 15.9262 15.4437 16.0724 15.4437 16.2552C15.4437 16.4307 15.3815 16.5733 15.2572 16.683C15.1402 16.7926 14.9904 16.8475 14.8076 16.8475H9.22532Z" fill="white"/>
</svg>
