<svg width="24" height="24" viewBox="0 0 24 24" fill="none" xmlns="http://www.w3.org/2000/svg">
<path d="M12 23C10.4939 23 9.07544 22.7112 7.74477 22.1336C6.4214 21.5633 5.25158 20.7737 4.23529 19.7647C3.22632 18.7484 2.43303 17.5786 1.85543 16.2552C1.28514 14.9246 1 13.5061 1 12C1 10.4939 1.28514 9.0791 1.85543 7.75573C2.43303 6.42506 3.22632 5.25523 4.23529 4.24626C5.24427 3.22998 6.41044 2.43669 7.7338 1.8664C9.06447 1.2888 10.4829 1 11.989 1C13.4952 1 14.9136 1.2888 16.2443 1.8664C17.5749 2.43669 18.7448 3.22998 19.7537 4.24626C20.7627 5.25523 21.556 6.42506 22.1336 7.75573C22.7112 9.0791 23 10.4939 23 12C23 13.5061 22.7112 14.9246 22.1336 16.2552C21.556 17.5786 20.7627 18.7484 19.7537 19.7647C18.7448 20.7737 17.5749 21.5633 16.2443 22.1336C14.9209 22.7112 13.5061 23 12 23ZM12 21.5852C13.3234 21.5852 14.5626 21.3367 15.7178 20.8395C16.8804 20.3423 17.9003 19.655 18.7777 18.7777C19.6623 17.9003 20.3496 16.884 20.8395 15.7288C21.3367 14.5663 21.5852 13.3234 21.5852 12C21.5852 10.6766 21.3367 9.43735 20.8395 8.28215C20.3423 7.11964 19.655 6.0997 18.7777 5.22233C17.9003 4.33765 16.8804 3.65038 15.7178 3.16052C14.5626 2.66334 13.3197 2.41476 11.989 2.41476C10.6657 2.41476 9.42273 2.66334 8.26022 3.16052C7.10502 3.65038 6.08873 4.33765 5.21137 5.22233C4.34131 6.0997 3.65769 7.11964 3.16052 8.28215C2.67065 9.43735 2.42572 10.6766 2.42572 12C2.42572 13.3234 2.67065 14.5663 3.16052 15.7288C3.65769 16.884 4.34497 17.9003 5.22233 18.7777C6.0997 19.655 7.11599 20.3423 8.27119 20.8395C9.42639 21.3367 10.6693 21.5852 12 21.5852ZM12 17.8564C11.2031 17.8564 10.4536 17.7029 9.75174 17.3958C9.04985 17.0887 8.42838 16.6647 7.88734 16.1236C7.34629 15.5826 6.92223 14.9611 6.61515 14.2592C6.30808 13.55 6.15454 12.8006 6.15454 12.011C6.15454 11.2213 6.30808 10.4719 6.61515 9.76271C6.92223 9.05351 7.34264 8.43204 7.87637 7.8983C8.41741 7.35726 9.03888 6.9332 9.74078 6.62612C10.45 6.31173 11.2031 6.15454 12 6.15454C12.7969 6.15454 13.5464 6.31173 14.2483 6.62612C14.9501 6.9332 15.5716 7.35726 16.1127 7.8983C16.6537 8.43204 17.0778 9.05351 17.3848 9.76271C17.6919 10.4719 17.8455 11.2213 17.8455 12.011C17.8455 12.8079 17.6919 13.5573 17.3848 14.2592C17.0778 14.9611 16.6537 15.5826 16.1127 16.1236C15.5789 16.6647 14.9575 17.0887 14.2483 17.3958C13.5464 17.7029 12.7969 17.8564 12 17.8564ZM12 16.5404C12.8262 16.5404 13.5793 16.3357 14.2592 15.9262C14.9465 15.5168 15.4948 14.9684 15.9043 14.2812C16.321 13.5939 16.5294 12.8372 16.5294 12.011C16.5294 11.1921 16.321 10.439 15.9043 9.75174C15.4948 9.05716 14.9465 8.50515 14.2592 8.09571C13.5793 7.68627 12.8262 7.48156 12 7.48156C11.1738 7.48156 10.4171 7.68627 9.72981 8.09571C9.04254 8.50515 8.49418 9.05351 8.08475 9.74078C7.67531 10.428 7.47059 11.1848 7.47059 12.011C7.47059 12.8298 7.67531 13.5829 8.08475 14.2702C8.5015 14.9575 9.04985 15.5095 9.72981 15.9262C10.4171 16.3357 11.1738 16.5404 12 16.5404Z" fill="#969696"/>
</svg>
