<svg width="24" height="24" viewBox="0 0 24 24" fill="none" xmlns="http://www.w3.org/2000/svg">
<path d="M2.49023 11.9492C2.49023 11.7018 2.59115 11.4837 2.79297 11.2949L9.25781 4.83984C9.36198 4.73568 9.46615 4.66081 9.57031 4.61523C9.68099 4.56966 9.79492 4.54688 9.91211 4.54688C10.153 4.54688 10.3548 4.62826 10.5176 4.79102C10.6868 4.94727 10.7715 5.14583 10.7715 5.38672C10.7715 5.50391 10.7487 5.61784 10.7031 5.72852C10.6641 5.83268 10.6055 5.92383 10.5273 6.00195L8.33984 8.22852L4.47266 11.7637L4.26758 11.2754L7.41211 11.0801H19.7656C20.0195 11.0801 20.2246 11.1615 20.3809 11.3242C20.5436 11.487 20.625 11.6953 20.625 11.9492C20.625 12.2031 20.5436 12.4115 20.3809 12.5742C20.2246 12.737 20.0195 12.8184 19.7656 12.8184H7.41211L4.26758 12.623L4.47266 12.1445L8.33984 15.6699L10.5273 17.8965C10.6055 17.9746 10.6641 18.069 10.7031 18.1797C10.7487 18.2839 10.7715 18.3945 10.7715 18.5117C10.7715 18.7526 10.6868 18.9512 10.5176 19.1074C10.3548 19.2702 10.153 19.3516 9.91211 19.3516C9.67773 19.3516 9.46615 19.2604 9.27734 19.0781L2.79297 12.6035C2.59115 12.4147 2.49023 12.1966 2.49023 11.9492Z" fill="white"/>
</svg>
