<svg width="24" height="24" viewBox="0 0 24 24" fill="none" xmlns="http://www.w3.org/2000/svg">
<path d="M18.4629 8.17238C18.156 8.17827 17.8898 8.07514 17.6644 7.86298C17.4389 7.64494 17.3262 7.39153 17.3262 7.10276C17.3262 6.8081 17.4389 6.5547 17.6644 6.34254C17.8898 6.12449 18.156 6.01547 18.4629 6.01547C18.7697 6.01547 19.0359 6.12449 19.2613 6.34254C19.4868 6.5547 19.5995 6.8081 19.5995 7.10276C19.5995 7.39153 19.4868 7.64199 19.2613 7.85414C19.0359 8.06041 18.7697 8.16648 18.4629 8.17238ZM18.4629 13.0696C18.156 13.0755 17.8898 12.9724 17.6644 12.7602C17.4389 12.5422 17.3262 12.2888 17.3262 12C17.3262 11.7053 17.4389 11.4519 17.6644 11.2398C17.8898 11.0217 18.156 10.9127 18.4629 10.9127C18.7697 10.9127 19.0359 11.0217 19.2613 11.2398C19.4868 11.4519 19.5995 11.7053 19.5995 12C19.5995 12.2888 19.4868 12.5392 19.2613 12.7514C19.0359 12.9576 18.7697 13.0637 18.4629 13.0696ZM18.4629 17.9669C18.156 17.9727 17.8898 17.8696 17.6644 17.6575C17.4389 17.4394 17.3262 17.186 17.3262 16.8972C17.3262 16.6026 17.4389 16.3492 17.6644 16.137C17.8898 15.919 18.156 15.8099 18.4629 15.8099C18.7697 15.8099 19.0359 15.919 19.2613 16.137C19.4868 16.3492 19.5995 16.6026 19.5995 16.8972C19.5995 17.186 19.4868 17.4365 19.2613 17.6486C19.0359 17.8549 18.7697 17.961 18.4629 17.9669ZM22.3894 10.0552H1.66695V9.02983H22.3894V10.0552ZM22.3894 15.0055H1.66695V13.9801H22.3894V15.0055ZM3.76174 20C2.84742 20 2.15855 19.782 1.69513 19.3459C1.23171 18.9157 1 18.2762 1 17.4276V6.58122C1 5.7267 1.23171 5.08435 1.69513 4.65414C2.15855 4.21805 2.84742 4 3.76174 4H20.2289C21.1494 4 21.8414 4.22099 22.3049 4.66298C22.7683 5.09908 23 5.73849 23 6.58122V17.4276C23 18.2762 22.7683 18.9157 22.3049 19.3459C21.8414 19.782 21.1494 20 20.2289 20H3.76174ZM3.78992 18.9127H20.2101C20.7299 18.9127 21.1307 18.7831 21.4125 18.5238C21.6943 18.2645 21.8352 17.8785 21.8352 17.3657V6.64309C21.8352 6.13039 21.6943 5.74438 21.4125 5.48508C21.1307 5.21989 20.7299 5.08729 20.2101 5.08729H3.78992C3.25761 5.08729 2.85056 5.21989 2.56874 5.48508C2.2932 5.74438 2.15542 6.13039 2.15542 6.64309V17.3657C2.15542 17.8785 2.2932 18.2645 2.56874 18.5238C2.85056 18.7831 3.25761 18.9127 3.78992 18.9127Z" fill="#969696"/>
</svg>
