<svg width="24" height="24" viewBox="0 0 24 24" fill="none" xmlns="http://www.w3.org/2000/svg">
<path d="M7.63959 17.3052C7.1419 17.3052 6.89306 17.0531 6.89306 16.549V7.43958C6.89306 6.94306 7.1419 6.69479 7.63959 6.69479H16.6432C17.1333 6.69479 17.3784 6.94306 17.3784 7.43958V16.549C17.3784 17.0531 17.1333 17.3052 16.6432 17.3052H7.63959ZM8.31825 16.1135H15.9532C16.1266 16.1135 16.2134 16.0295 16.2134 15.8615V8.13854C16.2134 7.96285 16.1266 7.875 15.9532 7.875H8.31825C8.15236 7.875 8.06941 7.96285 8.06941 8.13854V15.8615C8.06941 16.0295 8.15236 16.1135 8.31825 16.1135ZM3.88432 21.1208C3.6581 21.1208 3.47335 21.0521 3.33008 20.9146C3.19434 20.7771 3.12648 20.5899 3.12648 20.3531V3.63542C3.12648 3.39861 3.19434 3.21146 3.33008 3.07396C3.47335 2.92882 3.6581 2.85625 3.88432 2.85625H20.3871C20.6209 2.85625 20.8057 2.92882 20.9414 3.07396C21.0847 3.21146 21.1563 3.39861 21.1563 3.63542V20.3531C21.1563 20.5899 21.0847 20.7771 20.9414 20.9146C20.8057 21.0521 20.6209 21.1208 20.3871 21.1208H3.88432ZM4.80051 19.7229H19.471C19.667 19.7229 19.765 19.6236 19.765 19.425V4.575C19.765 4.36875 19.667 4.26563 19.471 4.26563H4.80051C4.612 4.26563 4.51774 4.36875 4.51774 4.575V19.425C4.51774 19.6236 4.612 19.7229 4.80051 19.7229ZM8.9856 20.0094V22.2896C8.9856 22.4958 8.91774 22.6639 8.782 22.7938C8.65381 22.9313 8.48792 23 8.28432 23C8.08072 23 7.91482 22.9313 7.78663 22.7938C7.65844 22.6639 7.59434 22.4958 7.59434 22.2896V20.0094H8.9856ZM12.8314 20.0094V22.2896C12.8314 22.4958 12.7673 22.6639 12.6391 22.7938C12.5109 22.9313 12.345 23 12.1414 23C11.9378 23 11.7681 22.9313 11.6324 22.7938C11.5042 22.6639 11.4401 22.4958 11.4401 22.2896V20.0094H12.8314ZM16.7563 20.0094V22.2896C16.7563 22.4958 16.6922 22.6639 16.564 22.7938C16.4358 22.9313 16.2662 23 16.055 23C15.8514 23 15.6855 22.9313 15.5573 22.7938C15.4291 22.6639 15.365 22.4958 15.365 22.2896V20.0094H16.7563ZM20.0478 15.174H22.2987C22.5023 15.174 22.6682 15.2389 22.7964 15.3688C22.9321 15.4986 23 15.6667 23 15.8729C23 16.0792 22.9321 16.251 22.7964 16.3885C22.6682 16.5184 22.5023 16.5833 22.2987 16.5833H20.0478V15.174ZM20.0478 11.2667H22.2987C22.5023 11.2667 22.6682 11.3354 22.7964 11.4729C22.9321 11.6028 23 11.7708 23 11.9771C23 12.1833 22.9321 12.3514 22.7964 12.4813C22.6682 12.6111 22.5023 12.676 22.2987 12.676H20.0478V11.2667ZM20.0478 7.37083H22.2987C22.5023 7.37083 22.6682 7.43576 22.7964 7.56563C22.9321 7.69549 23 7.86354 23 8.06979C23 8.27604 22.9321 8.44792 22.7964 8.58542C22.6682 8.71528 22.5023 8.78021 22.2987 8.78021H20.0478V7.37083ZM15.2972 3.97917V1.69896C15.2972 1.49271 15.3613 1.32465 15.4895 1.19479C15.6177 1.06493 15.7835 1 15.9871 1C16.1907 1 16.3566 1.06493 16.4848 1.19479C16.6206 1.32465 16.6884 1.49271 16.6884 1.69896V3.97917H15.2972ZM11.4401 3.97917V1.69896C11.4401 1.49271 11.5042 1.32465 11.6324 1.19479C11.7681 1.06493 11.9378 1 12.1414 1C12.345 1 12.5109 1.06493 12.6391 1.19479C12.7673 1.32465 12.8314 1.49271 12.8314 1.69896V3.97917H11.4401ZM7.59434 3.97917V1.69896C7.59434 1.49271 7.65844 1.32465 7.78663 1.19479C7.91482 1.06493 8.08072 1 8.28432 1C8.48792 1 8.65381 1.06493 8.782 1.19479C8.91774 1.32465 8.9856 1.49271 8.9856 1.69896V3.97917H7.59434ZM4.22365 8.79167H1.68997C1.48638 8.79167 1.32048 8.72674 1.19229 8.59688C1.0641 8.45938 1 8.2875 1 8.08125C1 7.875 1.0641 7.70694 1.19229 7.57708C1.32048 7.44722 1.48638 7.38229 1.68997 7.38229H4.22365V8.79167ZM4.22365 12.6875H1.68997C1.48638 12.6875 1.32048 12.6226 1.19229 12.4927C1.0641 12.3628 1 12.1948 1 11.9885C1 11.7823 1.0641 11.6142 1.19229 11.4844C1.32048 11.3469 1.48638 11.2781 1.68997 11.2781H4.22365V12.6875ZM4.22365 16.5948H1.68997C1.48638 16.5948 1.32048 16.5299 1.19229 16.4C1.0641 16.2625 1 16.0906 1 15.8844C1 15.6781 1.0641 15.5101 1.19229 15.3802C1.32048 15.2427 1.48638 15.174 1.68997 15.174H4.22365V16.5948Z" fill="#969696"/>
</svg>
