<svg width="24" height="24" viewBox="0 0 24 24" xmlns="http://www.w3.org/2000/svg" xmlns:xlink="http://www.w3.org/1999/xlink">
    <defs>
        <path d="M12 9a3 3 0 1 0 0 6 3 3 0 0 0 0-6m0 8a5 5 0 1 1 0-10 5 5 0 0 1 0 10m0-12.5C7 4.5 2.73 7.61 1 12c1.73 4.39 6 7.5 11 7.5s9.27-3.11 11-7.5c-1.73-4.39-6-7.5-11-7.5z" id="ka7w8nqota"/>
    </defs>
    <g fill="none" fill-rule="evenodd">
        <mask id="to7j4hnpob" fill="#fff">
            <use xlink:href="#ka7w8nqota"/>
        </mask>
        <g mask="url(#to7j4hnpob)" fill="#009BC5" fill-rule="nonzero">
            <path d="M0 0h25v25H0z"/>
        </g>
    </g>
</svg>
