<svg width="24" height="24" viewBox="0 0 24 24" fill="none" xmlns="http://www.w3.org/2000/svg">
<path d="M11.6422 22C11.3511 22 11.128 21.8779 10.9732 21.6336C10.8183 21.3893 10.7408 21.0385 10.7408 20.5812V11.9087C10.7408 11.6206 10.7687 11.3794 10.8245 11.1852C10.8864 10.9848 10.9886 10.8094 11.1311 10.6591C11.2736 10.5087 11.4688 10.3584 11.7166 10.2081L19.1507 5.87651C19.5101 5.66353 19.826 5.55705 20.0986 5.55705C20.3836 5.55705 20.6035 5.67606 20.7584 5.91409C20.9195 6.15213 21 6.50604 21 6.97584V15.6483C21 15.949 20.9721 16.1996 20.9164 16.4C20.8606 16.5942 20.7615 16.7664 20.619 16.9168C20.4827 17.0608 20.2907 17.2049 20.0428 17.349L12.618 21.6617C12.2339 21.8872 11.9086 22 11.6422 22ZM7.57202 19.651C7.3428 19.651 7.15385 19.5508 7.00516 19.3503C6.86267 19.1562 6.79143 18.8993 6.79143 18.5799V9.47517C6.79143 9.18076 6.81002 8.95213 6.84719 8.78926C6.88436 8.62013 6.9618 8.47919 7.0795 8.36644C7.20341 8.25369 7.39546 8.12215 7.65565 7.97181L15.508 3.39597C15.7248 3.27069 15.9293 3.20805 16.1213 3.20805C16.332 3.20805 16.5054 3.28009 16.6417 3.42416C16.778 3.56197 16.8431 3.74049 16.8369 3.95973L8.27827 8.94899C8.18534 9.00537 8.11409 9.05861 8.06453 9.10872C8.02117 9.15257 7.99019 9.20895 7.97161 9.27785C7.95302 9.34049 7.94373 9.42506 7.94373 9.53154V19.5289C7.81982 19.6103 7.69592 19.651 7.57202 19.651ZM3.7713 17.4336C3.52969 17.4336 3.34073 17.3333 3.20444 17.1329C3.06815 16.9262 3 16.6694 3 16.3624V7.26711C3 6.96018 3.01859 6.72528 3.05576 6.56242C3.09293 6.39955 3.17037 6.26488 3.28807 6.15839C3.41198 6.04564 3.60403 5.91096 3.86422 5.75436L11.7166 1.18792C11.8281 1.11902 11.9334 1.07204 12.0325 1.04698C12.1378 1.01566 12.2401 1 12.3392 1C12.5312 1 12.6954 1.0689 12.8317 1.20671C12.9742 1.33826 13.0423 1.51991 13.0361 1.75168L4.47754 6.73154C4.39701 6.78166 4.33196 6.83177 4.2824 6.88188C4.23283 6.93199 4.19876 6.9915 4.18018 7.0604C4.16159 7.12931 4.1523 7.21387 4.1523 7.31409V17.3114C4.02839 17.3928 3.90139 17.4336 3.7713 17.4336Z" fill="#969696"/>
</svg>
