<svg width="24" height="24" viewBox="0 0 24 24" fill="none" xmlns="http://www.w3.org/2000/svg">
<path d="M4.06105 19.0554C3.04764 19.0554 2.28411 18.7986 1.77047 18.285C1.25682 17.7643 1 16.9938 1 15.9736V8.02639C1 7.00616 1.25682 6.23923 1.77047 5.72559C2.28411 5.20493 3.04764 4.94459 4.06105 4.94459H19.9285C20.9489 4.94459 21.7159 5.20493 22.2295 5.72559C22.7432 6.24626 23 7.01319 23 8.02639V15.9736C23 16.9938 22.7432 17.7643 22.2295 18.285C21.7159 18.7986 20.9489 19.0554 19.9285 19.0554H4.06105ZM4.09229 17.7573H19.9077C20.4838 17.7573 20.9281 17.6025 21.2404 17.2929C21.5597 16.9833 21.7194 16.5224 21.7194 15.9103V8.10026C21.7194 7.48813 21.5597 7.02726 21.2404 6.71768C20.9281 6.40809 20.4838 6.2533 19.9077 6.2533H4.09229C3.50229 6.2533 3.05111 6.40809 2.73876 6.71768C2.43335 7.02726 2.28064 7.48813 2.28064 8.10026V15.9103C2.28064 16.5224 2.43335 16.9833 2.73876 17.2929C3.05111 17.6025 3.50229 17.7573 4.09229 17.7573ZM4.66493 3.72032V2.65435C4.66493 2.46438 4.72393 2.30959 4.84193 2.18997C4.95993 2.06332 5.11264 2 5.30005 2C5.48746 2 5.64016 2.06332 5.75816 2.18997C5.87616 2.30959 5.93516 2.46438 5.93516 2.65435V3.72032H4.66493ZM8.0071 3.72032V2.65435C8.0071 2.46438 8.0661 2.30959 8.1841 2.18997C8.3021 2.06332 8.4548 2 8.64221 2C8.83657 2 8.99274 2.06332 9.11074 2.18997C9.22874 2.30959 9.28774 2.46438 9.28774 2.65435V3.72032H8.0071ZM11.3597 3.72032V2.65435C11.3597 2.46438 11.4187 2.30959 11.5367 2.18997C11.6547 2.06332 11.8074 2 11.9948 2C12.1822 2 12.3349 2.06332 12.4529 2.18997C12.5779 2.30959 12.6403 2.46438 12.6403 2.65435V3.72032H11.3597ZM14.7123 3.72032V2.65435C14.7123 2.46438 14.7713 2.30959 14.8893 2.18997C15.0073 2.06332 15.16 2 15.3474 2C15.5348 2 15.6875 2.06332 15.8055 2.18997C15.9235 2.30959 15.9825 2.46438 15.9825 2.65435V3.72032H14.7123ZM18.0544 3.72032V2.65435C18.0544 2.46438 18.1134 2.30959 18.2314 2.18997C18.3564 2.06332 18.5125 2 18.7 2C18.8874 2 19.0401 2.06332 19.1581 2.18997C19.2761 2.30959 19.3351 2.46438 19.3351 2.65435V3.72032H18.0544ZM4.66493 20.2797H5.93516V21.3456C5.93516 21.5427 5.87616 21.701 5.75816 21.8206C5.64016 21.9402 5.48746 22 5.30005 22C5.11264 22 4.95993 21.9402 4.84193 21.8206C4.72393 21.701 4.66493 21.5427 4.66493 21.3456V20.2797ZM8.0071 20.2797H9.28774V21.3456C9.28774 21.5427 9.22874 21.701 9.11074 21.8206C8.99274 21.9402 8.83657 22 8.64221 22C8.4548 22 8.3021 21.9402 8.1841 21.8206C8.0661 21.701 8.0071 21.5427 8.0071 21.3456V20.2797ZM11.3597 20.2797H12.6403V21.3456C12.6403 21.5427 12.5779 21.701 12.4529 21.8206C12.3349 21.9402 12.1822 22 11.9948 22C11.8074 22 11.6547 21.9402 11.5367 21.8206C11.4187 21.701 11.3597 21.5427 11.3597 21.3456V20.2797ZM14.7123 20.2797H15.9825V21.3456C15.9825 21.5427 15.9235 21.701 15.8055 21.8206C15.6875 21.9402 15.5348 22 15.3474 22C15.16 22 15.0073 21.9402 14.8893 21.8206C14.7713 21.701 14.7123 21.5427 14.7123 21.3456V20.2797ZM18.0544 20.2797H19.3351V21.3456C19.3351 21.5427 19.2761 21.701 19.1581 21.8206C19.0401 21.9402 18.8874 22 18.7 22C18.5125 22 18.3564 21.9402 18.2314 21.8206C18.1134 21.701 18.0544 21.5427 18.0544 21.3456V20.2797Z" fill="#969696"/>
</svg>
