<svg width="24" height="24" viewBox="0 0 24 24" fill="none" xmlns="http://www.w3.org/2000/svg">
<path d="M10.9865 23C10.7035 23 10.4629 22.9222 10.2648 22.7665C10.0738 22.6109 9.94645 22.3845 9.88278 22.0873L9.35215 19.8162C9.16819 19.7525 8.98778 19.6889 8.8109 19.6252C8.63402 19.5544 8.46068 19.4801 8.29088 19.4023L6.30632 20.6334C6.06577 20.789 5.82168 20.8562 5.57405 20.835C5.32642 20.8138 5.10002 20.7006 4.89484 20.4954L3.49397 19.0945C3.28879 18.8894 3.17205 18.6594 3.14375 18.4047C3.12253 18.15 3.19328 17.9024 3.35601 17.6618L4.57646 15.6879C4.50571 15.5181 4.43496 15.3483 4.36421 15.1785C4.30053 15.0016 4.24039 14.8283 4.18379 14.6585L1.90207 14.1172C1.60492 14.0535 1.37852 13.9262 1.22287 13.7352C1.07429 13.5371 1 13.2965 1 13.0135V11.0183C1 10.7353 1.07429 10.4983 1.22287 10.3073C1.37852 10.1163 1.60492 9.9889 1.90207 9.92523L4.16257 9.38398C4.22624 9.19296 4.29346 9.01254 4.36421 8.84274C4.43496 8.66586 4.50217 8.49606 4.56585 8.33333L3.34539 6.33816C3.18267 6.0976 3.11192 5.85351 3.13314 5.60589C3.15437 5.35826 3.26757 5.13539 3.47274 4.93729L4.89484 3.52581C5.10002 3.32771 5.32288 3.2145 5.56343 3.1862C5.80399 3.1579 6.04454 3.21804 6.28509 3.36662L8.29088 4.61891C8.45361 4.54108 8.62341 4.4668 8.80029 4.39604C8.98424 4.31822 9.16819 4.24747 9.35215 4.18379L9.88278 1.91269C9.94645 1.62261 10.0738 1.39974 10.2648 1.24409C10.4629 1.08136 10.7035 1 10.9865 1H13.0029C13.293 1 13.5335 1.08136 13.7246 1.24409C13.9156 1.39974 14.0429 1.62261 14.1066 1.91269L14.6372 4.20502C14.8283 4.26869 15.0122 4.33591 15.1891 4.40666C15.366 4.47033 15.5322 4.54108 15.6879 4.61891L17.7043 3.36662C17.9519 3.21804 18.1925 3.1579 18.426 3.1862C18.6594 3.2145 18.8788 3.32771 19.0839 3.52581L20.5166 4.93729C20.7218 5.13539 20.835 5.35826 20.8562 5.60589C20.8775 5.85351 20.8067 6.0976 20.644 6.33816L19.4235 8.33333C19.4872 8.49606 19.5544 8.66586 19.6252 8.84274C19.6959 9.01254 19.7631 9.19296 19.8268 9.38398L22.0979 9.92523C22.388 9.9889 22.6109 10.1163 22.7665 10.3073C22.9222 10.4983 23 10.7353 23 11.0183V13.0135C23 13.2965 22.9222 13.5371 22.7665 13.7352C22.6109 13.9262 22.388 14.0535 22.0979 14.1172L19.8162 14.6585C19.7525 14.8283 19.6853 15.0016 19.6146 15.1785C19.5509 15.3483 19.4801 15.5181 19.4023 15.6879L20.6334 17.6618C20.7961 17.9024 20.8633 18.15 20.835 18.4047C20.8138 18.6594 20.7006 18.8894 20.4954 19.0945L19.0839 20.4954C18.8858 20.7006 18.663 20.8138 18.4153 20.835C18.1677 20.8562 17.9236 20.789 17.6831 20.6334L15.6879 19.4023C15.5252 19.4801 15.3554 19.5544 15.1785 19.6252C15.0016 19.6889 14.8212 19.7525 14.6372 19.8162L14.1066 22.0873C14.0429 22.3845 13.9156 22.6109 13.7246 22.7665C13.5335 22.9222 13.293 23 13.0029 23H10.9865ZM12.0053 15.7834C12.6987 15.7834 13.3319 15.6136 13.905 15.274C14.4781 14.9273 14.9344 14.4674 15.274 13.8944C15.6207 13.3142 15.794 12.6774 15.794 11.9841C15.794 11.2978 15.6207 10.6681 15.274 10.095C14.9344 9.52195 14.4781 9.06561 13.905 8.726C13.3319 8.37932 12.6987 8.20598 12.0053 8.20598C11.3119 8.20598 10.6787 8.37932 10.1056 8.726C9.53256 9.06561 9.07268 9.52195 8.726 10.095C8.37932 10.6681 8.20598 11.2978 8.20598 11.9841C8.20598 12.6774 8.37578 13.3142 8.71539 13.8944C9.06207 14.4674 9.52195 14.9273 10.095 15.274C10.6752 15.6136 11.3119 15.7834 12.0053 15.7834Z" fill="#969696"/>
</svg>
