<svg width="81" height="9" viewBox="0 0 81 9" fill="none" xmlns="http://www.w3.org/2000/svg">
<path d="M1.0247 0.535386V8.26577H0V0.535386H1.0247ZM4.26339 4.013V4.85187H0.801709V4.013H4.26339ZM4.78902 0.535386V1.37426H0.801709V0.535386H4.78902Z" fill="white"/>
<path d="M18.5806 4.15635V4.64481C18.5806 5.2253 18.508 5.74561 18.3629 6.20575C18.2178 6.66589 18.0089 7.05702 17.7364 7.37911C17.4639 7.70121 17.1364 7.94721 16.7542 8.11711C16.3754 8.28701 15.9507 8.37196 15.4799 8.37196C15.0233 8.37196 14.6039 8.28701 14.2216 8.11711C13.8429 7.94721 13.5137 7.70121 13.2341 7.37911C12.958 7.05702 12.7439 6.66589 12.5917 6.20575C12.4395 5.74561 12.3634 5.2253 12.3634 4.64481V4.15635C12.3634 3.57586 12.4377 3.05732 12.5863 2.60072C12.7385 2.14057 12.9527 1.74945 13.2288 1.42735C13.5049 1.10171 13.8323 0.853946 14.211 0.684047C14.5933 0.514149 15.0127 0.429199 15.4693 0.429199C15.9401 0.429199 16.3648 0.514149 16.7436 0.684047C17.1258 0.853946 17.4532 1.10171 17.7258 1.42735C18.0019 1.74945 18.2125 2.14057 18.3576 2.60072C18.5063 3.05732 18.5806 3.57586 18.5806 4.15635ZM17.5665 4.64481V4.14573C17.5665 3.68559 17.5187 3.27854 17.4231 2.92459C17.3311 2.57063 17.1948 2.27331 17.0143 2.03262C16.8338 1.79193 16.6126 1.60964 16.3507 1.48576C16.0923 1.36187 15.7985 1.29993 15.4693 1.29993C15.1508 1.29993 14.8623 1.36187 14.6039 1.48576C14.349 1.60964 14.1296 1.79193 13.9455 2.03262C13.765 2.27331 13.6252 2.57063 13.5261 2.92459C13.427 3.27854 13.3774 3.68559 13.3774 4.14573V4.64481C13.3774 5.10849 13.427 5.51908 13.5261 5.87657C13.6252 6.23053 13.7668 6.52962 13.9508 6.77385C14.1384 7.01454 14.3597 7.19683 14.6145 7.32071C14.8729 7.4446 15.1614 7.50654 15.4799 7.50654C15.8127 7.50654 16.1082 7.4446 16.3666 7.32071C16.625 7.19683 16.8427 7.01454 17.0196 6.77385C17.2002 6.52962 17.3364 6.23053 17.4285 5.87657C17.5205 5.51908 17.5665 5.10849 17.5665 4.64481Z" fill="white"/>
<path d="M26.7336 0.535386H29.2927C29.8732 0.535386 30.3635 0.623875 30.7634 0.800852C31.1669 0.97783 31.4731 1.23976 31.6819 1.58663C31.8943 1.92997 32.0005 2.35295 32.0005 2.85556C32.0005 3.20952 31.9279 3.53339 31.7828 3.82717C31.6412 4.11742 31.4359 4.36518 31.1669 4.57048C30.9015 4.77223 30.5829 4.92266 30.2113 5.02177L29.9245 5.13327H27.5194L27.5088 4.2997H29.3246C29.6927 4.2997 29.9989 4.23599 30.2431 4.10857C30.4873 3.9776 30.6714 3.80239 30.7953 3.58294C30.9192 3.36349 30.9811 3.12103 30.9811 2.85556C30.9811 2.55824 30.9227 2.29808 30.8059 2.07509C30.6891 1.8521 30.505 1.68043 30.2537 1.56009C30.006 1.4362 29.6856 1.37426 29.2927 1.37426H27.7583V8.26577H26.7336V0.535386ZM31.2519 8.26577L29.3724 4.76161L30.4396 4.7563L32.3456 8.20206V8.26577H31.2519Z" fill="white"/>
<path d="M50.3932 0.535386V8.26577H49.3685V0.535386H50.3932ZM55.0601 0.535386L51.8479 4.14042L50.0428 6.01462L49.8729 4.92089L51.2321 3.42366L53.8283 0.535386H55.0601ZM54.0725 8.26577L51.2108 4.49615L51.8214 3.68382L55.2937 8.26577H54.0725Z" fill="white"/>
<path d="M67.4341 6.1739C67.4341 6.64466 67.3243 7.04463 67.1049 7.37381C66.889 7.69944 66.5952 7.94721 66.2235 8.11711C65.8554 8.28701 65.4395 8.37196 64.9758 8.37196C64.5121 8.37196 64.0945 8.28701 63.7228 8.11711C63.3512 7.94721 63.0574 7.69944 62.8415 7.37381C62.6256 7.04463 62.5176 6.64466 62.5176 6.1739C62.5176 5.86596 62.576 5.58456 62.6928 5.32971C62.8132 5.07132 62.9813 4.84656 63.1972 4.65543C63.4167 4.46429 63.675 4.3174 63.9724 4.21475C64.2732 4.10857 64.6042 4.05547 64.9652 4.05547C65.4395 4.05547 65.8625 4.1475 66.2341 4.33156C66.6058 4.51208 66.8978 4.76161 67.1102 5.08017C67.3261 5.39873 67.4341 5.76331 67.4341 6.1739ZM66.4465 6.15266C66.4465 5.86596 66.3846 5.61288 66.2607 5.39342C66.1368 5.17043 65.9634 4.99699 65.7404 4.87311C65.5174 4.74923 65.259 4.68728 64.9652 4.68728C64.6643 4.68728 64.4042 4.74923 64.1847 4.87311C63.9688 4.99699 63.8007 5.17043 63.6804 5.39342C63.56 5.61288 63.4998 5.86596 63.4998 6.15266C63.4998 6.44998 63.5582 6.70483 63.675 6.9172C63.7954 7.12604 63.9653 7.28709 64.1847 7.40035C64.4077 7.51008 64.6714 7.56494 64.9758 7.56494C65.2802 7.56494 65.5422 7.51008 65.7616 7.40035C65.9811 7.28709 66.1492 7.12604 66.266 6.9172C66.3863 6.70483 66.4465 6.44998 66.4465 6.15266ZM67.2535 2.54762C67.2535 2.92282 67.1544 3.26084 66.9562 3.5617C66.758 3.86257 66.4872 4.09972 66.1439 4.27316C65.8005 4.44659 65.4112 4.53331 64.9758 4.53331C64.5334 4.53331 64.1387 4.44659 63.7919 4.27316C63.4485 4.09972 63.1795 3.86257 62.9848 3.5617C62.7902 3.26084 62.6928 2.92282 62.6928 2.54762C62.6928 2.0981 62.7902 1.71583 62.9848 1.40081C63.183 1.08579 63.4538 0.845097 63.7972 0.678738C64.1405 0.512379 64.5316 0.429199 64.9705 0.429199C65.413 0.429199 65.8059 0.512379 66.1492 0.678738C66.4925 0.845097 66.7615 1.08579 66.9562 1.40081C67.1544 1.71583 67.2535 2.0981 67.2535 2.54762ZM66.2713 2.56355C66.2713 2.30516 66.2164 2.07686 66.1067 1.87865C65.997 1.68043 65.8448 1.52469 65.6501 1.41143C65.4554 1.29462 65.2289 1.23622 64.9705 1.23622C64.7121 1.23622 64.4856 1.29108 64.2909 1.40081C64.0998 1.50699 63.9494 1.65919 63.8396 1.85741C63.7334 2.05562 63.6804 2.291 63.6804 2.56355C63.6804 2.82902 63.7334 3.06086 63.8396 3.25907C63.9494 3.45729 64.1016 3.61126 64.2962 3.72098C64.4909 3.83071 64.7174 3.88557 64.9758 3.88557C65.2342 3.88557 65.459 3.83071 65.6501 3.72098C65.8448 3.61126 65.997 3.45729 66.1067 3.25907C66.2164 3.06086 66.2713 2.82902 66.2713 2.56355Z" fill="white"/>
<path d="M79.67 6.31194C79.67 6.13142 79.6417 5.97214 79.585 5.8341C79.5319 5.69252 79.4364 5.56509 79.2983 5.45183C79.1638 5.33856 78.9762 5.2306 78.7355 5.12796C78.4984 5.02531 78.1975 4.92089 77.833 4.81471C77.4507 4.70144 77.1056 4.57579 76.7976 4.43774C76.4897 4.29616 76.226 4.13511 76.0065 3.9546C75.7871 3.77408 75.619 3.56701 75.5022 3.3334C75.3854 3.09979 75.327 2.83256 75.327 2.53169C75.327 2.23083 75.3889 1.95298 75.5128 1.69813C75.6367 1.44328 75.8136 1.22206 76.0437 1.03446C76.2773 0.843327 76.5552 0.694666 76.8773 0.588479C77.1994 0.482293 77.5586 0.429199 77.9551 0.429199C78.5356 0.429199 79.0276 0.540695 79.4311 0.763687C79.8381 0.983139 80.1478 1.27161 80.3602 1.62911C80.5726 1.98306 80.6788 2.3618 80.6788 2.76531H79.6594C79.6594 2.47506 79.5974 2.21844 79.4735 1.99545C79.3497 1.76892 79.1621 1.59194 78.9108 1.46452C78.6594 1.33356 78.3409 1.26807 77.9551 1.26807C77.5905 1.26807 77.2896 1.32294 77.0525 1.43266C76.8153 1.54239 76.6384 1.69105 76.5216 1.87865C76.4083 2.06624 76.3517 2.28039 76.3517 2.52108C76.3517 2.6839 76.3853 2.83256 76.4525 2.96706C76.5233 3.09802 76.6313 3.22014 76.7764 3.3334C76.9251 3.44667 77.1127 3.55109 77.3392 3.64665C77.5693 3.74222 77.8436 3.83425 78.1621 3.92274C78.601 4.04662 78.9798 4.18467 79.2983 4.33687C79.6169 4.48907 79.8788 4.66074 80.0841 4.85187C80.2929 5.03947 80.4469 5.25361 80.546 5.4943C80.6487 5.73145 80.7 6.00046 80.7 6.30132C80.7 6.61634 80.6363 6.90127 80.5089 7.15612C80.3814 7.41097 80.1991 7.62865 79.962 7.80917C79.7248 7.98969 79.4399 8.1295 79.1072 8.22861C78.778 8.32418 78.4099 8.37196 78.0029 8.37196C77.6454 8.37196 77.2932 8.32241 76.9463 8.2233C76.603 8.12419 76.2897 7.97553 76.0065 7.77731C75.7269 7.5791 75.5022 7.33487 75.3323 7.04463C75.1659 6.75084 75.0827 6.41105 75.0827 6.02523H76.1021C76.1021 6.2907 76.1534 6.519 76.2561 6.71014C76.3587 6.89774 76.4985 7.05348 76.6755 7.17736C76.856 7.30124 77.0596 7.39327 77.2861 7.45344C77.5162 7.51008 77.7551 7.53839 78.0029 7.53839C78.3603 7.53839 78.663 7.48884 78.9108 7.38973C79.1585 7.29063 79.3461 7.14904 79.4735 6.96499C79.6045 6.78093 79.67 6.56325 79.67 6.31194Z" fill="white"/>
</svg>
