<svg width="171" height="25" viewBox="0 0 171 25" fill="none" xmlns="http://www.w3.org/2000/svg">
<path d="M3.62076 24.0089C3.24414 24.0089 2.92743 23.8805 2.67063 23.6237C2.43096 23.3841 2.31113 23.0759 2.31113 22.6993V10.9896C2.32825 9.63715 2.64496 8.42167 3.26126 7.34314C3.87756 6.26461 4.71641 5.4172 5.77782 4.8009C6.83922 4.16748 8.03758 3.85077 9.3729 3.85077C10.7253 3.85077 11.9323 4.16748 12.9937 4.8009C14.0551 5.4172 14.8939 6.26461 15.5102 7.34314C16.1436 8.42167 16.4604 9.63715 16.4604 10.9896C16.4604 12.342 16.1693 13.5575 15.5873 14.636C15.0223 15.6974 14.2434 16.5448 13.2505 17.1783C12.2575 17.7946 11.1362 18.1027 9.88648 18.1027C8.87644 18.1027 7.94343 17.8973 7.08745 17.4864C6.2486 17.0584 5.52958 16.4849 4.9304 15.7659V22.6993C4.9304 23.0759 4.81057 23.3841 4.57089 23.6237C4.33122 23.8805 4.01451 24.0089 3.62076 24.0089ZM9.3729 15.7916C10.246 15.7916 11.0249 15.5862 11.7097 15.1753C12.3945 14.7473 12.9337 14.1738 13.3275 13.4548C13.7384 12.7186 13.9438 11.8969 13.9438 10.9896C13.9438 10.0651 13.7384 9.2434 13.3275 8.52438C12.9337 7.78825 12.3945 7.21474 11.7097 6.80388C11.0249 6.37589 10.246 6.1619 9.3729 6.1619C8.51693 6.1619 7.73799 6.37589 7.0361 6.80388C6.35132 7.21474 5.81205 7.78825 5.41831 8.52438C5.02456 9.2434 4.82769 10.0651 4.82769 10.9896C4.82769 11.8969 5.02456 12.7186 5.41831 13.4548C5.81205 14.1738 6.35132 14.7473 7.0361 15.1753C7.73799 15.5862 8.51693 15.7916 9.3729 15.7916ZM27.8293 18.1284C26.6481 18.1284 25.5867 17.8802 24.6451 17.3837C23.7207 16.8701 22.9845 16.1254 22.4367 15.1496C21.906 14.1738 21.6406 12.9754 21.6406 11.5545V5.23745C21.6406 4.86082 21.7605 4.55267 22.0002 4.313C22.2569 4.0562 22.5737 3.92781 22.9503 3.92781C23.3269 3.92781 23.6351 4.0562 23.8747 4.313C24.1315 4.55267 24.2599 4.86082 24.2599 5.23745V11.5545C24.2599 12.5132 24.4397 13.3093 24.7992 13.9427C25.1587 14.559 25.6466 15.0212 26.2629 15.3294C26.8792 15.6204 27.5725 15.7659 28.3429 15.7659C29.079 15.7659 29.7296 15.6204 30.2945 15.3294C30.8766 15.0383 31.3388 14.6446 31.6812 14.1481C32.0236 13.6517 32.1948 13.0953 32.1948 12.479H33.8126C33.8126 13.5404 33.5472 14.4991 33.0165 15.355C32.5029 16.211 31.7925 16.8872 30.8851 17.3837C29.9949 17.8802 28.9763 18.1284 27.8293 18.1284ZM33.5044 18C33.1278 18 32.8111 17.8802 32.5543 17.6405C32.3146 17.3837 32.1948 17.067 32.1948 16.6904V5.23745C32.1948 4.8437 32.3146 4.52699 32.5543 4.28732C32.8111 4.04764 33.1278 3.92781 33.5044 3.92781C33.8982 3.92781 34.2149 4.04764 34.4546 4.28732C34.6942 4.52699 34.8141 4.8437 34.8141 5.23745V16.6904C34.8141 17.067 34.6942 17.3837 34.4546 17.6405C34.2149 17.8802 33.8982 18 33.5044 18ZM52.8472 18.0257C52.4706 18.0257 52.1538 17.9058 51.8971 17.6662C51.6574 17.4094 51.5375 17.0927 51.5375 16.716V10.399C51.5375 9.42315 51.3578 8.6271 50.9983 8.0108C50.6388 7.3945 50.1509 6.94083 49.5346 6.6498C48.9354 6.34165 48.2421 6.18758 47.4546 6.18758C46.7355 6.18758 46.085 6.33309 45.5029 6.62412C44.9209 6.91515 44.4587 7.3089 44.1163 7.80537C43.7739 8.28471 43.6027 8.84109 43.6027 9.47451H41.9849C41.9849 8.39599 42.2417 7.4373 42.7553 6.59844C43.286 5.74247 44.005 5.06625 44.9123 4.56979C45.8196 4.07332 46.8383 3.82509 47.9681 3.82509C49.1494 3.82509 50.2022 4.08188 51.1267 4.59547C52.0682 5.09193 52.8044 5.82807 53.3351 6.80388C53.8829 7.77969 54.1568 8.97805 54.1568 10.399V16.716C54.1568 17.0927 54.0284 17.4094 53.7716 17.6662C53.532 17.9058 53.2238 18.0257 52.8472 18.0257ZM42.293 18.0257C41.9164 18.0257 41.5997 17.9058 41.3429 17.6662C41.1032 17.4094 40.9834 17.0927 40.9834 16.716V5.26313C40.9834 4.86938 41.1032 4.55267 41.3429 4.313C41.5997 4.07332 41.9164 3.95349 42.293 3.95349C42.6868 3.95349 43.0035 4.07332 43.2432 4.313C43.4828 4.55267 43.6027 4.86938 43.6027 5.26313V16.716C43.6027 17.0927 43.4828 17.4094 43.2432 17.6662C43.0035 17.9058 42.6868 18.0257 42.293 18.0257ZM72.1899 24.0089C71.7962 24.0089 71.4709 23.8805 71.2141 23.6237C70.9745 23.3841 70.8546 23.0759 70.8546 22.6993V15.7659C70.2726 16.4849 69.5535 17.0584 68.6976 17.4864C67.8416 17.8973 66.9086 18.1027 65.8985 18.1027C64.6488 18.1027 63.5275 17.7946 62.5346 17.1783C61.5416 16.5448 60.7541 15.6974 60.1721 14.636C59.6071 13.5575 59.3247 12.342 59.3247 10.9896C59.3247 9.63715 59.6328 8.42167 60.2491 7.34314C60.8825 6.26461 61.73 5.4172 62.7914 4.8009C63.8699 4.16748 65.0768 3.85077 66.4121 3.85077C67.7474 3.85077 68.9458 4.16748 70.0072 4.8009C71.0686 5.4172 71.9075 6.26461 72.5238 7.34314C73.1572 8.42167 73.4739 9.63715 73.4739 10.9896V22.6993C73.4739 23.0759 73.3541 23.3841 73.1144 23.6237C72.8747 23.8805 72.5666 24.0089 72.1899 24.0089ZM66.4121 15.7916C67.2852 15.7916 68.0642 15.5862 68.7489 15.1753C69.4337 14.7473 69.973 14.1738 70.3667 13.4548C70.7605 12.7186 70.9573 11.8969 70.9573 10.9896C70.9573 10.0651 70.7605 9.2434 70.3667 8.52438C69.973 7.78825 69.4337 7.21474 68.7489 6.80388C68.0642 6.37589 67.2852 6.1619 66.4121 6.1619C65.5562 6.1619 64.7772 6.37589 64.0753 6.80388C63.3905 7.21474 62.8427 7.78825 62.4319 8.52438C62.0381 9.2434 61.8412 10.0651 61.8412 10.9896C61.8412 11.8969 62.0381 12.7186 62.4319 13.4548C62.8427 14.1738 63.3905 14.7473 64.0753 15.1753C64.7772 15.5862 65.5562 15.7916 66.4121 15.7916Z" fill="black"/>
<path d="M91.0247 7.53539V15.2658H90V7.53539H91.0247ZM94.2634 11.013V11.8519H90.8017V11.013H94.2634ZM94.789 7.53539V8.37426H90.8017V7.53539H94.789Z" fill="black"/>
<path d="M108.581 11.1564V11.6448C108.581 12.2253 108.508 12.7456 108.363 13.2058C108.218 13.6659 108.009 14.057 107.736 14.3791C107.464 14.7012 107.136 14.9472 106.754 15.1171C106.375 15.287 105.951 15.372 105.48 15.372C105.023 15.372 104.604 15.287 104.222 15.1171C103.843 14.9472 103.514 14.7012 103.234 14.3791C102.958 14.057 102.744 13.6659 102.592 13.2058C102.439 12.7456 102.363 12.2253 102.363 11.6448V11.1564C102.363 10.5759 102.438 10.0573 102.586 9.60072C102.739 9.14057 102.953 8.74945 103.229 8.42735C103.505 8.10171 103.832 7.85395 104.211 7.68405C104.593 7.51415 105.013 7.4292 105.469 7.4292C105.94 7.4292 106.365 7.51415 106.744 7.68405C107.126 7.85395 107.453 8.10171 107.726 8.42735C108.002 8.74945 108.212 9.14057 108.358 9.60072C108.506 10.0573 108.581 10.5759 108.581 11.1564ZM107.567 11.6448V11.1457C107.567 10.6856 107.519 10.2785 107.423 9.92459C107.331 9.57063 107.195 9.27331 107.014 9.03262C106.834 8.79193 106.613 8.60964 106.351 8.48576C106.092 8.36187 105.798 8.29993 105.469 8.29993C105.151 8.29993 104.862 8.36187 104.604 8.48576C104.349 8.60964 104.13 8.79193 103.946 9.03262C103.765 9.27331 103.625 9.57063 103.526 9.92459C103.427 10.2785 103.377 10.6856 103.377 11.1457V11.6448C103.377 12.1085 103.427 12.5191 103.526 12.8766C103.625 13.2305 103.767 13.5296 103.951 13.7739C104.138 14.0145 104.36 14.1968 104.615 14.3207C104.873 14.4446 105.161 14.5065 105.48 14.5065C105.813 14.5065 106.108 14.4446 106.367 14.3207C106.625 14.1968 106.843 14.0145 107.02 13.7739C107.2 13.5296 107.336 13.2305 107.428 12.8766C107.52 12.5191 107.567 12.1085 107.567 11.6448Z" fill="black"/>
<path d="M116.734 7.53539H119.293C119.873 7.53539 120.363 7.62387 120.763 7.80085C121.167 7.97783 121.473 8.23976 121.682 8.58663C121.894 8.92997 122 9.35295 122 9.85556C122 10.2095 121.928 10.5334 121.783 10.8272C121.641 11.1174 121.436 11.3652 121.167 11.5705C120.901 11.7722 120.583 11.9227 120.211 12.0218L119.925 12.1333H117.519L117.509 11.2997H119.325C119.693 11.2997 119.999 11.236 120.243 11.1086C120.487 10.9776 120.671 10.8024 120.795 10.5829C120.919 10.3635 120.981 10.121 120.981 9.85556C120.981 9.55824 120.923 9.29808 120.806 9.07509C120.689 8.8521 120.505 8.68043 120.254 8.56009C120.006 8.4362 119.686 8.37426 119.293 8.37426H117.758V15.2658H116.734V7.53539ZM121.252 15.2658L119.372 11.7616L120.44 11.7563L122.346 15.2021V15.2658H121.252Z" fill="black"/>
<path d="M140.393 7.53539V15.2658H139.368V7.53539H140.393ZM145.06 7.53539L141.848 11.1404L140.043 13.0146L139.873 11.9209L141.232 10.4237L143.828 7.53539H145.06ZM144.073 15.2658L141.211 11.4961L141.821 10.6838L145.294 15.2658H144.073Z" fill="black"/>
<path d="M157.434 13.1739C157.434 13.6447 157.324 14.0446 157.105 14.3738C156.889 14.6994 156.595 14.9472 156.224 15.1171C155.855 15.287 155.44 15.372 154.976 15.372C154.512 15.372 154.094 15.287 153.723 15.1171C153.351 14.9472 153.057 14.6994 152.841 14.3738C152.626 14.0446 152.518 13.6447 152.518 13.1739C152.518 12.866 152.576 12.5846 152.693 12.3297C152.813 12.0713 152.981 11.8466 153.197 11.6554C153.417 11.4643 153.675 11.3174 153.972 11.2148C154.273 11.1086 154.604 11.0555 154.965 11.0555C155.44 11.0555 155.862 11.1475 156.234 11.3316C156.606 11.5121 156.898 11.7616 157.11 12.0802C157.326 12.3987 157.434 12.7633 157.434 13.1739ZM156.447 13.1527C156.447 12.866 156.385 12.6129 156.261 12.3934C156.137 12.1704 155.963 11.997 155.74 11.8731C155.517 11.7492 155.259 11.6873 154.965 11.6873C154.664 11.6873 154.404 11.7492 154.185 11.8731C153.969 11.997 153.801 12.1704 153.68 12.3934C153.56 12.6129 153.5 12.866 153.5 13.1527C153.5 13.45 153.558 13.7048 153.675 13.9172C153.795 14.126 153.965 14.2871 154.185 14.4004C154.408 14.5101 154.671 14.5649 154.976 14.5649C155.28 14.5649 155.542 14.5101 155.762 14.4004C155.981 14.2871 156.149 14.126 156.266 13.9172C156.386 13.7048 156.447 13.45 156.447 13.1527ZM157.254 9.54762C157.254 9.92282 157.154 10.2608 156.956 10.5617C156.758 10.8626 156.487 11.0997 156.144 11.2732C155.801 11.4466 155.411 11.5333 154.976 11.5333C154.533 11.5333 154.139 11.4466 153.792 11.2732C153.449 11.0997 153.18 10.8626 152.985 10.5617C152.79 10.2608 152.693 9.92282 152.693 9.54762C152.693 9.0981 152.79 8.71583 152.985 8.40081C153.183 8.08579 153.454 7.8451 153.797 7.67874C154.14 7.51238 154.532 7.4292 154.971 7.4292C155.413 7.4292 155.806 7.51238 156.149 7.67874C156.493 7.8451 156.762 8.08579 156.956 8.40081C157.154 8.71583 157.254 9.0981 157.254 9.54762ZM156.271 9.56355C156.271 9.30516 156.216 9.07686 156.107 8.87865C155.997 8.68043 155.845 8.52469 155.65 8.41143C155.455 8.29462 155.229 8.23622 154.971 8.23622C154.712 8.23622 154.486 8.29108 154.291 8.40081C154.1 8.50699 153.949 8.65919 153.84 8.85741C153.733 9.05562 153.68 9.291 153.68 9.56355C153.68 9.82902 153.733 10.0609 153.84 10.2591C153.949 10.4573 154.102 10.6113 154.296 10.721C154.491 10.8307 154.717 10.8856 154.976 10.8856C155.234 10.8856 155.459 10.8307 155.65 10.721C155.845 10.6113 155.997 10.4573 156.107 10.2591C156.216 10.0609 156.271 9.82902 156.271 9.56355Z" fill="black"/>
<path d="M169.67 13.3119C169.67 13.1314 169.642 12.9721 169.585 12.8341C169.532 12.6925 169.436 12.5651 169.298 12.4518C169.164 12.3386 168.976 12.2306 168.736 12.128C168.498 12.0253 168.198 11.9209 167.833 11.8147C167.451 11.7014 167.106 11.5758 166.798 11.4377C166.49 11.2962 166.226 11.1351 166.007 10.9546C165.787 10.7741 165.619 10.567 165.502 10.3334C165.385 10.0998 165.327 9.83256 165.327 9.53169C165.327 9.23083 165.389 8.95298 165.513 8.69813C165.637 8.44328 165.814 8.22206 166.044 8.03446C166.277 7.84333 166.555 7.69467 166.877 7.58848C167.199 7.48229 167.559 7.4292 167.955 7.4292C168.536 7.4292 169.028 7.5407 169.431 7.76369C169.838 7.98314 170.148 8.27161 170.36 8.62911C170.573 8.98306 170.679 9.3618 170.679 9.76531H169.659C169.659 9.47506 169.597 9.21844 169.474 8.99545C169.35 8.76892 169.162 8.59194 168.911 8.46452C168.659 8.33356 168.341 8.26807 167.955 8.26807C167.59 8.26807 167.29 8.32294 167.052 8.43266C166.815 8.54239 166.638 8.69105 166.522 8.87865C166.408 9.06624 166.352 9.28039 166.352 9.52108C166.352 9.6839 166.385 9.83256 166.453 9.96706C166.523 10.098 166.631 10.2201 166.776 10.3334C166.925 10.4467 167.113 10.5511 167.339 10.6467C167.569 10.7422 167.844 10.8343 168.162 10.9227C168.601 11.0466 168.98 11.1847 169.298 11.3369C169.617 11.4891 169.879 11.6607 170.084 11.8519C170.293 12.0395 170.447 12.2536 170.546 12.4943C170.649 12.7315 170.7 13.0005 170.7 13.3013C170.7 13.6163 170.636 13.9013 170.509 14.1561C170.381 14.411 170.199 14.6287 169.962 14.8092C169.725 14.9897 169.44 15.1295 169.107 15.2286C168.778 15.3242 168.41 15.372 168.003 15.372C167.645 15.372 167.293 15.3224 166.946 15.2233C166.603 15.1242 166.29 14.9755 166.007 14.7773C165.727 14.5791 165.502 14.3349 165.332 14.0446C165.166 13.7508 165.083 13.411 165.083 13.0252H166.102C166.102 13.2907 166.153 13.519 166.256 13.7101C166.359 13.8977 166.499 14.0535 166.676 14.1774C166.856 14.3012 167.06 14.3933 167.286 14.4534C167.516 14.5101 167.755 14.5384 168.003 14.5384C168.36 14.5384 168.663 14.4888 168.911 14.3897C169.159 14.2906 169.346 14.149 169.474 13.965C169.604 13.7809 169.67 13.5632 169.67 13.3119Z" fill="black"/>
</svg>
