<svg width="169" height="22" viewBox="0 0 169 22" fill="none" xmlns="http://www.w3.org/2000/svg">
<path d="M1.62073 21.0089C1.24411 21.0089 0.927397 20.8805 0.670605 20.6237C0.430932 20.384 0.311096 20.0759 0.311096 19.6993V7.98957C0.328216 6.63713 0.644926 5.42165 1.26123 4.34312C1.87753 3.2646 2.71638 2.41718 3.77779 1.80088C4.83919 1.16746 6.03755 0.850754 7.37287 0.850754C8.72531 0.850754 9.93223 1.16746 10.9936 1.80088C12.055 2.41718 12.8939 3.2646 13.5102 4.34312C14.1436 5.42165 14.4603 6.63713 14.4603 7.98957C14.4603 9.342 14.1693 10.5575 13.5872 11.636C13.0223 12.6974 12.2434 13.5448 11.2504 14.1782C10.2575 14.7945 9.13618 15.1027 7.88646 15.1027C6.87641 15.1027 5.9434 14.8973 5.08742 14.4864C4.24857 14.0584 3.52955 13.4849 2.93037 12.7659V19.6993C2.93037 20.0759 2.81054 20.384 2.57086 20.6237C2.33119 20.8805 2.01448 21.0089 1.62073 21.0089ZM7.37287 12.7916C8.24596 12.7916 9.0249 12.5861 9.70968 12.1753C10.3945 11.7473 10.9337 11.1738 11.3275 10.4548C11.7383 9.71863 11.9438 8.8969 11.9438 7.98957C11.9438 7.06512 11.7383 6.24338 11.3275 5.52436C10.9337 4.78823 10.3945 4.21473 9.70968 3.80386C9.0249 3.37587 8.24596 3.16188 7.37287 3.16188C6.5169 3.16188 5.73796 3.37587 5.03607 3.80386C4.35129 4.21473 3.81202 4.78823 3.41828 5.52436C3.02453 6.24338 2.82766 7.06512 2.82766 7.98957C2.82766 8.8969 3.02453 9.71863 3.41828 10.4548C3.81202 11.1738 4.35129 11.7473 5.03607 12.1753C5.73796 12.5861 6.5169 12.7916 7.37287 12.7916Z" fill="white"/>
<path d="M25.8293 15.1284C24.6481 15.1284 23.5866 14.8801 22.6451 14.3837C21.7206 13.8701 20.9845 13.1254 20.4367 12.1496C19.906 11.1738 19.6406 9.97542 19.6406 8.55451V2.23743C19.6406 1.8608 19.7604 1.55265 20.0001 1.31298C20.2569 1.05619 20.5736 0.92779 20.9503 0.92779C21.3269 0.92779 21.635 1.05619 21.8747 1.31298C22.1315 1.55265 22.2599 1.8608 22.2599 2.23743V8.55451C22.2599 9.5132 22.4396 10.3093 22.7992 10.9427C23.1587 11.559 23.6466 12.0212 24.2629 12.3293C24.8792 12.6204 25.5725 12.7659 26.3429 12.7659C27.079 12.7659 27.7296 12.6204 28.2945 12.3293C28.8766 12.0383 29.3388 11.6446 29.6812 11.1481C30.0236 10.6516 30.1948 10.0953 30.1948 9.47896H31.8125C31.8125 10.5404 31.5472 11.4991 31.0165 12.355C30.5029 13.211 29.7924 13.8872 28.8851 14.3837C27.9949 14.8801 26.9763 15.1284 25.8293 15.1284ZM31.5044 15C31.1278 15 30.8111 14.8801 30.5543 14.6405C30.3146 14.3837 30.1948 14.067 30.1948 13.6903V2.23743C30.1948 1.84368 30.3146 1.52697 30.5543 1.2873C30.8111 1.04763 31.1278 0.92779 31.5044 0.92779C31.8981 0.92779 32.2149 1.04763 32.4545 1.2873C32.6942 1.52697 32.814 1.84368 32.814 2.23743V13.6903C32.814 14.067 32.6942 14.3837 32.4545 14.6405C32.2149 14.8801 31.8981 15 31.5044 15Z" fill="white"/>
<path d="M50.8472 15.0257C50.4705 15.0257 50.1538 14.9058 49.897 14.6662C49.6573 14.4094 49.5375 14.0927 49.5375 13.716V7.39894C49.5375 6.42314 49.3578 5.62708 48.9983 5.01078C48.6387 4.39448 48.1508 3.94081 47.5345 3.64978C46.9354 3.34163 46.242 3.18756 45.4545 3.18756C44.7355 3.18756 44.085 3.33307 43.5029 3.6241C42.9208 3.91514 42.4586 4.30888 42.1162 4.80535C41.7738 5.28469 41.6026 5.84107 41.6026 6.47449H39.9849C39.9849 5.39597 40.2417 4.43728 40.7552 3.59842C41.2859 2.74245 42.005 2.06623 42.9123 1.56977C43.8196 1.07331 44.8382 0.825073 45.9681 0.825073C47.1494 0.825073 48.2022 1.08187 49.1266 1.59545C50.0682 2.09191 50.8044 2.82805 51.3351 3.80386C51.8829 4.77967 52.1568 5.97803 52.1568 7.39894V13.716C52.1568 14.0927 52.0284 14.4094 51.7716 14.6662C51.5319 14.9058 51.2238 15.0257 50.8472 15.0257ZM40.293 15.0257C39.9164 15.0257 39.5997 14.9058 39.3429 14.6662C39.1032 14.4094 38.9834 14.0927 38.9834 13.716V2.26311C38.9834 1.86936 39.1032 1.55265 39.3429 1.31298C39.5997 1.0733 39.9164 0.953469 40.293 0.953469C40.6868 0.953469 41.0035 1.0733 41.2431 1.31298C41.4828 1.55265 41.6026 1.86936 41.6026 2.26311V13.716C41.6026 14.0927 41.4828 14.4094 41.2431 14.6662C41.0035 14.9058 40.6868 15.0257 40.293 15.0257Z" fill="white"/>
<path d="M70.1899 21.0089C69.7962 21.0089 69.4709 20.8805 69.2141 20.6237C68.9744 20.384 68.8546 20.0759 68.8546 19.6993V12.7659C68.2725 13.4849 67.5535 14.0584 66.6975 14.4864C65.8416 14.8973 64.9086 15.1027 63.8985 15.1027C62.6488 15.1027 61.5275 14.7945 60.5345 14.1782C59.5416 13.5448 58.7541 12.6974 58.1721 11.636C57.6071 10.5575 57.3246 9.342 57.3246 7.98957C57.3246 6.63713 57.6328 5.42165 58.2491 4.34312C58.8825 3.2646 59.7299 2.41718 60.7913 1.80088C61.8699 1.16746 63.0768 0.850754 64.4121 0.850754C65.7474 0.850754 66.9458 1.16746 68.0072 1.80088C69.0686 2.41718 69.9074 3.2646 70.5237 4.34312C71.1572 5.42165 71.4739 6.63713 71.4739 7.98957V19.6993C71.4739 20.0759 71.354 20.384 71.1144 20.6237C70.8747 20.8805 70.5665 21.0089 70.1899 21.0089ZM64.4121 12.7916C65.2852 12.7916 66.0641 12.5861 66.7489 12.1753C67.4337 11.7473 67.9729 11.1738 68.3667 10.4548C68.7604 9.71863 68.9573 8.8969 68.9573 7.98957C68.9573 7.06512 68.7604 6.24338 68.3667 5.52436C67.9729 4.78823 67.4337 4.21473 66.7489 3.80386C66.0641 3.37587 65.2852 3.16188 64.4121 3.16188C63.5561 3.16188 62.7772 3.37587 62.0753 3.80386C61.3905 4.21473 60.8427 4.78823 60.4318 5.52436C60.0381 6.24338 59.8412 7.06512 59.8412 7.98957C59.8412 8.8969 60.0381 9.71863 60.4318 10.4548C60.8427 11.1738 61.3905 11.7473 62.0753 12.1753C62.7772 12.5861 63.5561 12.7916 64.4121 12.7916Z" fill="white"/>
<path d="M89.0247 4.53539V12.2658H88V4.53539H89.0247ZM92.2634 8.013V8.85187H88.8017V8.013H92.2634ZM92.789 4.53539V5.37426H88.8017V4.53539H92.789Z" fill="white"/>
<path d="M106.581 8.15635V8.64481C106.581 9.2253 106.508 9.74561 106.363 10.2058C106.218 10.6659 106.009 11.057 105.736 11.3791C105.464 11.7012 105.136 11.9472 104.754 12.1171C104.375 12.287 103.951 12.372 103.48 12.372C103.023 12.372 102.604 12.287 102.222 12.1171C101.843 11.9472 101.514 11.7012 101.234 11.3791C100.958 11.057 100.744 10.6659 100.592 10.2058C100.439 9.74561 100.363 9.2253 100.363 8.64481V8.15635C100.363 7.57586 100.438 7.05732 100.586 6.60072C100.739 6.14057 100.953 5.74945 101.229 5.42735C101.505 5.10171 101.832 4.85395 102.211 4.68405C102.593 4.51415 103.013 4.4292 103.469 4.4292C103.94 4.4292 104.365 4.51415 104.744 4.68405C105.126 4.85395 105.453 5.10171 105.726 5.42735C106.002 5.74945 106.212 6.14057 106.358 6.60072C106.506 7.05732 106.581 7.57586 106.581 8.15635ZM105.567 8.64481V8.14573C105.567 7.68559 105.519 7.27854 105.423 6.92459C105.331 6.57063 105.195 6.27331 105.014 6.03262C104.834 5.79193 104.613 5.60964 104.351 5.48576C104.092 5.36187 103.798 5.29993 103.469 5.29993C103.151 5.29993 102.862 5.36187 102.604 5.48576C102.349 5.60964 102.13 5.79193 101.946 6.03262C101.765 6.27331 101.625 6.57063 101.526 6.92459C101.427 7.27854 101.377 7.68559 101.377 8.14573V8.64481C101.377 9.10849 101.427 9.51908 101.526 9.87657C101.625 10.2305 101.767 10.5296 101.951 10.7739C102.138 11.0145 102.36 11.1968 102.615 11.3207C102.873 11.4446 103.161 11.5065 103.48 11.5065C103.813 11.5065 104.108 11.4446 104.367 11.3207C104.625 11.1968 104.843 11.0145 105.02 10.7739C105.2 10.5296 105.336 10.2305 105.428 9.87657C105.52 9.51908 105.567 9.10849 105.567 8.64481Z" fill="white"/>
<path d="M114.734 4.53539H117.293C117.873 4.53539 118.363 4.62387 118.763 4.80085C119.167 4.97783 119.473 5.23976 119.682 5.58663C119.894 5.92997 120 6.35295 120 6.85556C120 7.20952 119.928 7.53339 119.783 7.82717C119.641 8.11742 119.436 8.36518 119.167 8.57048C118.901 8.77223 118.583 8.92266 118.211 9.02177L117.925 9.13327H115.519L115.509 8.2997H117.325C117.693 8.2997 117.999 8.23599 118.243 8.10857C118.487 7.9776 118.671 7.80239 118.795 7.58294C118.919 7.36349 118.981 7.12103 118.981 6.85556C118.981 6.55824 118.923 6.29808 118.806 6.07509C118.689 5.8521 118.505 5.68043 118.254 5.56009C118.006 5.4362 117.686 5.37426 117.293 5.37426H115.758V12.2658H114.734V4.53539ZM119.252 12.2658L117.372 8.76161L118.44 8.7563L120.346 12.2021V12.2658H119.252Z" fill="white"/>
<path d="M138.393 4.53539V12.2658H137.368V4.53539H138.393ZM143.06 4.53539L139.848 8.14042L138.043 10.0146L137.873 8.92089L139.232 7.42366L141.828 4.53539H143.06ZM142.073 12.2658L139.211 8.49615L139.821 7.68382L143.294 12.2658H142.073Z" fill="white"/>
<path d="M155.434 10.1739C155.434 10.6447 155.324 11.0446 155.105 11.3738C154.889 11.6994 154.595 11.9472 154.224 12.1171C153.855 12.287 153.44 12.372 152.976 12.372C152.512 12.372 152.094 12.287 151.723 12.1171C151.351 11.9472 151.057 11.6994 150.841 11.3738C150.626 11.0446 150.518 10.6447 150.518 10.1739C150.518 9.86596 150.576 9.58456 150.693 9.32971C150.813 9.07132 150.981 8.84656 151.197 8.65543C151.417 8.46429 151.675 8.3174 151.972 8.21475C152.273 8.10857 152.604 8.05547 152.965 8.05547C153.44 8.05547 153.862 8.1475 154.234 8.33156C154.606 8.51208 154.898 8.76161 155.11 9.08017C155.326 9.39873 155.434 9.76331 155.434 10.1739ZM154.447 10.1527C154.447 9.86596 154.385 9.61288 154.261 9.39342C154.137 9.17043 153.963 8.99699 153.74 8.87311C153.517 8.74923 153.259 8.68728 152.965 8.68728C152.664 8.68728 152.404 8.74923 152.185 8.87311C151.969 8.99699 151.801 9.17043 151.68 9.39342C151.56 9.61288 151.5 9.86596 151.5 10.1527C151.5 10.45 151.558 10.7048 151.675 10.9172C151.795 11.126 151.965 11.2871 152.185 11.4004C152.408 11.5101 152.671 11.5649 152.976 11.5649C153.28 11.5649 153.542 11.5101 153.762 11.4004C153.981 11.2871 154.149 11.126 154.266 10.9172C154.386 10.7048 154.447 10.45 154.447 10.1527ZM155.254 6.54762C155.254 6.92282 155.154 7.26084 154.956 7.5617C154.758 7.86257 154.487 8.09972 154.144 8.27316C153.801 8.44659 153.411 8.53331 152.976 8.53331C152.533 8.53331 152.139 8.44659 151.792 8.27316C151.449 8.09972 151.18 7.86257 150.985 7.5617C150.79 7.26084 150.693 6.92282 150.693 6.54762C150.693 6.0981 150.79 5.71583 150.985 5.40081C151.183 5.08579 151.454 4.8451 151.797 4.67874C152.14 4.51238 152.532 4.4292 152.971 4.4292C153.413 4.4292 153.806 4.51238 154.149 4.67874C154.493 4.8451 154.762 5.08579 154.956 5.40081C155.154 5.71583 155.254 6.0981 155.254 6.54762ZM154.271 6.56355C154.271 6.30516 154.216 6.07686 154.107 5.87865C153.997 5.68043 153.845 5.52469 153.65 5.41143C153.455 5.29462 153.229 5.23622 152.971 5.23622C152.712 5.23622 152.486 5.29108 152.291 5.40081C152.1 5.50699 151.949 5.65919 151.84 5.85741C151.733 6.05562 151.68 6.291 151.68 6.56355C151.68 6.82902 151.733 7.06086 151.84 7.25907C151.949 7.45729 152.102 7.61126 152.296 7.72098C152.491 7.83071 152.717 7.88557 152.976 7.88557C153.234 7.88557 153.459 7.83071 153.65 7.72098C153.845 7.61126 153.997 7.45729 154.107 7.25907C154.216 7.06086 154.271 6.82902 154.271 6.56355Z" fill="white"/>
<path d="M167.67 10.3119C167.67 10.1314 167.642 9.97214 167.585 9.8341C167.532 9.69252 167.436 9.56509 167.298 9.45183C167.164 9.33856 166.976 9.2306 166.736 9.12796C166.498 9.02531 166.198 8.92089 165.833 8.81471C165.451 8.70144 165.106 8.57579 164.798 8.43774C164.49 8.29616 164.226 8.13511 164.007 7.9546C163.787 7.77408 163.619 7.56701 163.502 7.3334C163.385 7.09979 163.327 6.83256 163.327 6.53169C163.327 6.23083 163.389 5.95298 163.513 5.69813C163.637 5.44328 163.814 5.22206 164.044 5.03446C164.277 4.84333 164.555 4.69467 164.877 4.58848C165.199 4.48229 165.559 4.4292 165.955 4.4292C166.536 4.4292 167.028 4.5407 167.431 4.76369C167.838 4.98314 168.148 5.27161 168.36 5.62911C168.573 5.98306 168.679 6.3618 168.679 6.76531H167.659C167.659 6.47506 167.597 6.21844 167.474 5.99545C167.35 5.76892 167.162 5.59194 166.911 5.46452C166.659 5.33356 166.341 5.26807 165.955 5.26807C165.59 5.26807 165.29 5.32294 165.052 5.43266C164.815 5.54239 164.638 5.69105 164.522 5.87865C164.408 6.06624 164.352 6.28039 164.352 6.52108C164.352 6.6839 164.385 6.83256 164.453 6.96706C164.523 7.09802 164.631 7.22014 164.776 7.3334C164.925 7.44667 165.113 7.55109 165.339 7.64665C165.569 7.74222 165.844 7.83425 166.162 7.92274C166.601 8.04662 166.98 8.18467 167.298 8.33687C167.617 8.48907 167.879 8.66074 168.084 8.85187C168.293 9.03947 168.447 9.25361 168.546 9.4943C168.649 9.73145 168.7 10.0005 168.7 10.3013C168.7 10.6163 168.636 10.9013 168.509 11.1561C168.381 11.411 168.199 11.6287 167.962 11.8092C167.725 11.9897 167.44 12.1295 167.107 12.2286C166.778 12.3242 166.41 12.372 166.003 12.372C165.645 12.372 165.293 12.3224 164.946 12.2233C164.603 12.1242 164.29 11.9755 164.007 11.7773C163.727 11.5791 163.502 11.3349 163.332 11.0446C163.166 10.7508 163.083 10.411 163.083 10.0252H164.102C164.102 10.2907 164.153 10.519 164.256 10.7101C164.359 10.8977 164.499 11.0535 164.676 11.1774C164.856 11.3012 165.06 11.3933 165.286 11.4534C165.516 11.5101 165.755 11.5384 166.003 11.5384C166.36 11.5384 166.663 11.4888 166.911 11.3897C167.159 11.2906 167.346 11.149 167.474 10.965C167.605 10.7809 167.67 10.5632 167.67 10.3119Z" fill="white"/>
</svg>
