<svg width="72" height="22" viewBox="0 0 72 22" fill="none" xmlns="http://www.w3.org/2000/svg">
<path d="M1.62073 21.0089C1.24411 21.0089 0.927397 20.8805 0.670605 20.6237C0.430932 20.384 0.311096 20.0759 0.311096 19.6993V7.98957C0.328216 6.63713 0.644926 5.42165 1.26123 4.34312C1.87753 3.2646 2.71638 2.41718 3.77779 1.80088C4.83919 1.16746 6.03755 0.850754 7.37287 0.850754C8.72531 0.850754 9.93223 1.16746 10.9936 1.80088C12.055 2.41718 12.8939 3.2646 13.5102 4.34312C14.1436 5.42165 14.4603 6.63713 14.4603 7.98957C14.4603 9.342 14.1693 10.5575 13.5872 11.636C13.0223 12.6974 12.2434 13.5448 11.2504 14.1782C10.2575 14.7945 9.13618 15.1027 7.88646 15.1027C6.87641 15.1027 5.9434 14.8973 5.08742 14.4864C4.24857 14.0584 3.52955 13.4849 2.93037 12.7659V19.6993C2.93037 20.0759 2.81054 20.384 2.57086 20.6237C2.33119 20.8805 2.01448 21.0089 1.62073 21.0089ZM7.37287 12.7916C8.24596 12.7916 9.0249 12.5861 9.70968 12.1753C10.3945 11.7473 10.9337 11.1738 11.3275 10.4548C11.7383 9.71863 11.9438 8.8969 11.9438 7.98957C11.9438 7.06512 11.7383 6.24338 11.3275 5.52436C10.9337 4.78823 10.3945 4.21473 9.70968 3.80386C9.0249 3.37587 8.24596 3.16188 7.37287 3.16188C6.5169 3.16188 5.73796 3.37587 5.03607 3.80386C4.35129 4.21473 3.81202 4.78823 3.41828 5.52436C3.02453 6.24338 2.82766 7.06512 2.82766 7.98957C2.82766 8.8969 3.02453 9.71863 3.41828 10.4548C3.81202 11.1738 4.35129 11.7473 5.03607 12.1753C5.73796 12.5861 6.5169 12.7916 7.37287 12.7916Z" fill="white"/>
<path d="M25.8293 15.1284C24.6481 15.1284 23.5866 14.8801 22.6451 14.3837C21.7206 13.8701 20.9845 13.1254 20.4367 12.1496C19.906 11.1738 19.6406 9.97542 19.6406 8.55451V2.23743C19.6406 1.8608 19.7604 1.55265 20.0001 1.31298C20.2569 1.05619 20.5736 0.92779 20.9503 0.92779C21.3269 0.92779 21.635 1.05619 21.8747 1.31298C22.1315 1.55265 22.2599 1.8608 22.2599 2.23743V8.55451C22.2599 9.5132 22.4396 10.3093 22.7992 10.9427C23.1587 11.559 23.6466 12.0212 24.2629 12.3293C24.8792 12.6204 25.5725 12.7659 26.3429 12.7659C27.079 12.7659 27.7296 12.6204 28.2945 12.3293C28.8766 12.0383 29.3388 11.6446 29.6812 11.1481C30.0236 10.6516 30.1948 10.0953 30.1948 9.47896H31.8125C31.8125 10.5404 31.5472 11.4991 31.0165 12.355C30.5029 13.211 29.7924 13.8872 28.8851 14.3837C27.9949 14.8801 26.9763 15.1284 25.8293 15.1284ZM31.5044 15C31.1278 15 30.8111 14.8801 30.5543 14.6405C30.3146 14.3837 30.1948 14.067 30.1948 13.6903V2.23743C30.1948 1.84368 30.3146 1.52697 30.5543 1.2873C30.8111 1.04763 31.1278 0.92779 31.5044 0.92779C31.8981 0.92779 32.2149 1.04763 32.4545 1.2873C32.6942 1.52697 32.814 1.84368 32.814 2.23743V13.6903C32.814 14.067 32.6942 14.3837 32.4545 14.6405C32.2149 14.8801 31.8981 15 31.5044 15Z" fill="white"/>
<path d="M50.8472 15.0257C50.4705 15.0257 50.1538 14.9058 49.897 14.6662C49.6573 14.4094 49.5375 14.0927 49.5375 13.716V7.39894C49.5375 6.42314 49.3578 5.62708 48.9983 5.01078C48.6387 4.39448 48.1508 3.94081 47.5345 3.64978C46.9354 3.34163 46.242 3.18756 45.4545 3.18756C44.7355 3.18756 44.085 3.33307 43.5029 3.6241C42.9208 3.91514 42.4586 4.30888 42.1162 4.80535C41.7738 5.28469 41.6026 5.84107 41.6026 6.47449H39.9849C39.9849 5.39597 40.2417 4.43728 40.7552 3.59842C41.2859 2.74245 42.005 2.06623 42.9123 1.56977C43.8196 1.07331 44.8382 0.825073 45.9681 0.825073C47.1494 0.825073 48.2022 1.08187 49.1266 1.59545C50.0682 2.09191 50.8044 2.82805 51.3351 3.80386C51.8829 4.77967 52.1568 5.97803 52.1568 7.39894V13.716C52.1568 14.0927 52.0284 14.4094 51.7716 14.6662C51.5319 14.9058 51.2238 15.0257 50.8472 15.0257ZM40.293 15.0257C39.9164 15.0257 39.5997 14.9058 39.3429 14.6662C39.1032 14.4094 38.9834 14.0927 38.9834 13.716V2.26311C38.9834 1.86936 39.1032 1.55265 39.3429 1.31298C39.5997 1.0733 39.9164 0.953469 40.293 0.953469C40.6868 0.953469 41.0035 1.0733 41.2431 1.31298C41.4828 1.55265 41.6026 1.86936 41.6026 2.26311V13.716C41.6026 14.0927 41.4828 14.4094 41.2431 14.6662C41.0035 14.9058 40.6868 15.0257 40.293 15.0257Z" fill="white"/>
<path d="M70.1899 21.0089C69.7962 21.0089 69.4709 20.8805 69.2141 20.6237C68.9744 20.384 68.8546 20.0759 68.8546 19.6993V12.7659C68.2725 13.4849 67.5535 14.0584 66.6975 14.4864C65.8416 14.8973 64.9086 15.1027 63.8985 15.1027C62.6488 15.1027 61.5275 14.7945 60.5345 14.1782C59.5416 13.5448 58.7541 12.6974 58.1721 11.636C57.6071 10.5575 57.3246 9.342 57.3246 7.98957C57.3246 6.63713 57.6328 5.42165 58.2491 4.34312C58.8825 3.2646 59.7299 2.41718 60.7913 1.80088C61.8699 1.16746 63.0768 0.850754 64.4121 0.850754C65.7474 0.850754 66.9458 1.16746 68.0072 1.80088C69.0686 2.41718 69.9074 3.2646 70.5237 4.34312C71.1572 5.42165 71.4739 6.63713 71.4739 7.98957V19.6993C71.4739 20.0759 71.354 20.384 71.1144 20.6237C70.8747 20.8805 70.5665 21.0089 70.1899 21.0089ZM64.4121 12.7916C65.2852 12.7916 66.0641 12.5861 66.7489 12.1753C67.4337 11.7473 67.9729 11.1738 68.3667 10.4548C68.7604 9.71863 68.9573 8.8969 68.9573 7.98957C68.9573 7.06512 68.7604 6.24338 68.3667 5.52436C67.9729 4.78823 67.4337 4.21473 66.7489 3.80386C66.0641 3.37587 65.2852 3.16188 64.4121 3.16188C63.5561 3.16188 62.7772 3.37587 62.0753 3.80386C61.3905 4.21473 60.8427 4.78823 60.4318 5.52436C60.0381 6.24338 59.8412 7.06512 59.8412 7.98957C59.8412 8.8969 60.0381 9.71863 60.4318 10.4548C60.8427 11.1738 61.3905 11.7473 62.0753 12.1753C62.7772 12.5861 63.5561 12.7916 64.4121 12.7916Z" fill="white"/>
</svg>
